<?xml version="1.0" standalone="no"?>
<!DOCTYPE svg PUBLIC "-//W3C//DTD SVG 20010904//EN"
 "http://www.w3.org/TR/2001/REC-SVG-20010904/DTD/svg10.dtd">
<svg version="1.0" xmlns="http://www.w3.org/2000/svg"
 width="2082.000000pt" height="2082.000000pt" viewBox="0 0 2082.000000 2082.000000"
 preserveAspectRatio="xMidYMid meet">

<g transform="translate(0.000000,2082.000000) scale(0.100000,-0.100000)"
fill="white" stroke="white">
<path d="M7530 19413 c-304 -32 -586 -190 -761 -426 -157 -210 -239 -449 -239
-694 0 -138 12 -211 56 -349 114 -358 419 -646 783 -741 133 -34 329 -42 470
-19 295 50 540 204 716 451 97 135 159 283 191 452 24 130 15 363 -20 496 -43
167 -144 352 -265 489 -61 69 -211 178 -318 232 -183 92 -406 131 -613 109z"/>
<path d="M13220 19409 c-245 -23 -467 -127 -654 -308 -200 -195 -305 -412
-337 -695 -38 -349 106 -724 365 -950 146 -128 299 -210 473 -253 96 -25 126
-28 273 -27 146 0 178 3 275 27 435 108 776 489 836 933 15 115 6 314 -20 420
-79 321 -292 594 -577 737 -185 93 -421 136 -634 116z"/>
<path d="M7745 16591 c-420 -41 -814 -278 -1047 -631 -42 -63 -127 -205 -189
-315 -61 -110 -143 -251 -181 -313 -37 -62 -98 -166 -134 -230 -37 -64 -109
-189 -162 -277 -52 -88 -136 -232 -187 -320 -111 -194 -236 -409 -405 -695
-70 -118 -142 -242 -160 -275 -72 -128 -703 -1193 -860 -1450 -37 -60 -92
-153 -122 -205 -30 -52 -93 -160 -140 -240 -119 -204 -171 -300 -165 -306 3
-3 24 4 48 17 70 35 147 59 269 82 l115 21 2115 6 c1163 3 2116 7 2118 8 4 4
-34 74 -89 162 -28 47 -75 123 -102 170 -233 392 -310 523 -418 712 l-124 218
-827 2 -827 3 79 130 c44 72 106 175 137 230 31 55 124 217 208 360 83 143
218 375 300 515 81 140 222 381 313 535 91 154 217 368 280 475 204 346 201
343 314 338 59 -3 71 -7 99 -33 17 -17 49 -61 71 -100 23 -38 112 -191 198
-340 268 -459 439 -756 640 -1110 106 -187 257 -450 335 -585 232 -398 397
-685 490 -850 49 -85 134 -234 190 -330 123 -213 278 -483 440 -770 67 -118
167 -294 222 -390 105 -183 248 -435 416 -730 243 -426 279 -480 385 -582 179
-170 370 -271 637 -334 58 -14 145 -18 514 -21 244 -3 442 -1 440 4 -14 31
-166 312 -232 428 -44 77 -147 257 -227 400 -81 143 -223 391 -315 550 -197
341 -475 824 -565 980 -35 61 -104 180 -153 265 -50 85 -143 247 -207 360 -65
113 -149 259 -187 325 -193 329 -409 704 -473 820 -40 72 -110 193 -155 270
-45 77 -113 196 -150 265 -65 119 -317 561 -648 1135 -83 143 -195 339 -250
435 -55 96 -147 258 -204 360 -156 274 -204 343 -317 455 -199 198 -432 321
-709 374 -118 22 -327 33 -442 22z"/>
<path d="M12985 16593 c-345 -29 -656 -174 -902 -420 -100 -100 -165 -197
-348 -518 -187 -330 -445 -775 -590 -1020 -257 -435 -365 -623 -365 -635 0 -8
41 -84 92 -169 50 -86 130 -223 178 -306 47 -82 152 -262 231 -400 80 -137
161 -278 180 -312 19 -35 37 -63 41 -63 4 0 19 22 33 49 41 82 275 485 803
1386 58 99 144 248 192 330 336 583 395 685 423 728 54 81 138 106 224 68 48
-22 41 -13 223 -321 189 -322 329 -558 360 -610 16 -25 137 -234 270 -465 134
-231 273 -472 310 -535 37 -63 99 -171 138 -240 38 -69 106 -185 151 -259 45
-74 81 -139 81 -145 0 -8 -228 -10 -824 -8 -655 2 -825 0 -834 -10 -5 -7 -55
-92 -110 -188 -55 -96 -138 -238 -184 -315 -47 -77 -113 -189 -148 -250 -34
-60 -112 -191 -171 -291 -60 -99 -111 -188 -115 -197 -5 -15 160 -16 2128 -20
1871 -4 2143 -6 2218 -20 102 -18 241 -61 292 -90 21 -11 40 -18 43 -16 7 8
-149 277 -755 1299 -596 1005 -761 1284 -830 1405 -35 61 -100 173 -145 250
-79 133 -179 305 -385 660 -52 88 -157 268 -235 400 -78 132 -182 310 -230
395 -170 301 -290 452 -453 575 -266 200 -644 307 -987 278z"/>
<path d="M9444 11653 c-21 -38 -112 -198 -204 -358 -91 -159 -196 -342 -232
-405 -36 -63 -146 -254 -245 -425 -99 -170 -248 -429 -332 -573 -84 -145 -171
-294 -193 -330 -23 -37 -80 -137 -127 -222 -48 -85 -93 -165 -101 -177 -8 -12
-12 -23 -10 -25 3 -2 199 0 435 3 386 6 439 9 517 27 262 62 451 158 624 316
111 101 202 235 404 596 57 102 129 229 162 282 35 59 58 109 58 126 0 16 -16
54 -38 88 -21 32 -97 163 -169 289 -360 633 -491 855 -505 855 -4 0 -24 -30
-44 -67z"/>
<path d="M4437 10949 c-330 -29 -640 -171 -853 -391 -96 -100 -161 -189 -241
-333 -28 -50 -97 -169 -153 -265 -211 -357 -470 -813 -470 -825 0 -4 199 -5
443 -2 488 5 515 8 712 77 196 69 324 150 475 300 111 110 150 168 357 525 83
143 216 373 295 510 193 332 228 395 228 406 0 11 -666 10 -793 -2z"/>
<path d="M15760 10955 c0 -3 73 -133 161 -288 89 -155 191 -334 227 -397 143
-250 325 -557 369 -619 135 -191 357 -355 596 -440 197 -69 236 -74 721 -78
407 -4 438 -3 432 12 -3 9 -40 76 -82 148 -42 73 -191 332 -332 577 -287 501
-307 533 -370 610 -224 272 -555 439 -928 470 -130 10 -794 14 -794 5z"/>
<path d="M5268 6033 c-12 -27 -64 -138 -115 -248 -52 -110 -135 -288 -185
-395 -49 -107 -135 -292 -191 -410 -55 -118 -139 -300 -187 -405 -48 -104
-122 -264 -165 -355 -43 -91 -113 -246 -155 -345 -43 -99 -130 -296 -194 -439
-64 -142 -113 -262 -110 -267 3 -5 130 -9 283 -9 321 0 290 -10 344 115 112
260 217 498 222 504 4 3 117 7 252 10 223 3 244 5 240 20 -3 15 -175 274 -266
402 l-33 46 36 70 c19 39 98 212 175 384 271 609 332 744 341 753 9 9 33 -41
183 -379 55 -126 158 -358 227 -515 l126 -285 -353 -3 c-248 -1 -353 -6 -353
-13 0 -6 70 -116 155 -245 l155 -234 296 -2 c252 -3 298 -5 305 -18 4 -8 63
-145 130 -303 72 -169 130 -292 140 -298 21 -11 568 -12 586 -1 8 5 -26 92
-114 287 -68 154 -182 411 -253 570 -386 872 -569 1277 -745 1650 -73 154
-145 308 -160 343 l-28 62 -284 0 -284 0 -21 -47z"/>
<path d="M7820 6070 c0 -6 40 -68 88 -138 49 -70 133 -192 187 -272 54 -80
135 -197 180 -260 45 -63 146 -209 226 -323 79 -114 172 -248 207 -298 52 -75
61 -93 52 -109 -6 -11 -64 -91 -128 -178 -65 -86 -139 -188 -166 -227 -78
-112 -268 -379 -467 -660 -201 -282 -286 -407 -295 -430 -5 -13 34 -15 313
-15 309 0 321 1 338 20 10 11 68 95 129 185 349 520 581 862 594 877 14 16 16
16 32 -5 10 -12 175 -259 369 -549 l351 -528 315 0 c340 0 337 -1 297 51 -27
35 -308 449 -600 884 -141 209 -288 429 -329 488 -40 59 -73 117 -73 129 0 11
29 59 64 107 34 47 96 134 137 193 41 59 119 171 174 249 55 79 148 213 206
298 95 140 309 453 334 487 5 7 6 17 1 21 -4 4 -141 8 -304 8 l-297 0 -133
-185 c-73 -102 -191 -270 -263 -375 -219 -319 -248 -360 -257 -363 -8 -2 -108
139 -436 618 -66 96 -141 204 -166 240 l-46 65 -317 3 c-212 1 -317 -1 -317
-8z"/>
<path d="M11657 6073 l-239 -3 5 -1453 4 -1452 1038 -3 1038 -2 -6 187 c-4
104 -7 216 -7 251 l0 63 -758 -3 -759 -3 -7 575 c-4 316 -6 857 -6 1202 1 345
-1 631 -5 637 -3 6 -18 10 -33 9 -15 -2 -134 -4 -265 -5z"/>
<path d="M14394 6069 c-4 -7 -9 -207 -12 -446 l-5 -433 274 2 274 3 3 193 2
192 483 3 c265 1 641 2 836 2 345 0 354 0 360 20 4 11 5 122 3 248 l-4 227
-1103 0 c-820 0 -1106 -3 -1111 -11z"/>
<path d="M14387 4843 c-3 -5 -5 -382 -6 -840 l-2 -832 23 -6 c13 -3 520 -4
1128 -3 l1105 3 0 245 0 245 -852 3 -853 2 0 359 0 358 38 7 c20 3 364 6 765
6 l727 0 0 230 0 230 -1034 0 c-569 0 -1037 -3 -1039 -7z"/>
<path d="M4303 2255 c-53 -16 -121 -56 -150 -87 -30 -31 -62 -106 -69 -161
-21 -148 82 -261 276 -302 41 -9 113 -28 159 -42 138 -43 193 -118 155 -212
-33 -83 -164 -124 -306 -97 -85 16 -137 40 -214 97 l-52 38 -36 -55 c-20 -30
-34 -60 -30 -65 16 -26 134 -91 208 -115 339 -108 639 62 576 325 -28 118
-111 175 -340 231 -68 18 -140 38 -160 46 -115 49 -138 161 -47 239 84 72 214
70 367 -7 47 -24 88 -44 92 -46 4 -2 19 20 33 48 25 49 25 53 9 71 -25 28
-114 67 -201 90 -88 22 -207 24 -270 4z"/>
<path d="M5837 2254 c-98 -24 -167 -62 -237 -133 -104 -105 -150 -224 -150
-383 0 -293 216 -508 509 -508 307 1 530 222 531 525 0 195 -110 371 -284 455
-128 61 -243 75 -369 44z m287 -140 c187 -91 267 -302 196 -510 -35 -102 -101
-172 -208 -222 -48 -22 -71 -27 -147 -27 -82 0 -96 3 -157 33 -83 40 -158 119
-190 200 -19 48 -23 76 -23 172 0 107 2 119 28 169 55 104 154 185 260 212 18
4 66 7 107 5 59 -2 88 -9 134 -32z"/>
<path d="M12725 2251 c-131 -37 -251 -132 -313 -248 -104 -195 -77 -440 65
-602 222 -253 637 -228 833 51 68 97 93 176 92 298 0 252 -149 441 -397 505
-77 20 -204 18 -280 -4z m307 -138 c84 -40 137 -88 176 -161 62 -116 65 -265
8 -389 -130 -279 -542 -283 -678 -5 -32 65 -33 71 -33 192 0 119 1 128 30 185
51 101 145 178 252 205 71 17 174 6 245 -27z"/>
<path d="M15943 2260 c-148 -31 -240 -125 -250 -254 -13 -160 77 -255 284
-301 117 -27 214 -55 254 -76 87 -44 105 -152 36 -216 -103 -94 -347 -78 -488
31 -65 50 -66 50 -109 -19 -21 -33 -21 -37 -6 -60 19 -29 157 -98 239 -119
183 -48 376 -15 465 77 101 104 100 298 -1 383 -49 42 -119 69 -277 109 -150
39 -203 60 -232 91 -67 75 -17 195 94 225 47 12 172 7 229 -10 19 -6 64 -28
100 -50 35 -21 68 -37 72 -34 5 3 22 26 38 51 34 54 31 61 -50 102 -124 62
-294 92 -398 70z"/>
<path d="M7223 2253 l-23 -4 0 -487 c0 -268 4 -493 9 -500 6 -10 80 -14 331
-18 178 -3 334 -3 347 1 22 5 24 10 21 63 l-3 57 -280 3 -280 2 3 440 c4 422
3 440 -15 440 -10 0 -34 2 -53 4 -19 2 -45 2 -57 -1z"/>
<path d="M8513 1923 c5 -356 8 -387 56 -486 36 -74 86 -124 167 -163 66 -33
84 -38 173 -42 126 -6 211 17 299 82 139 102 169 238 156 694 l-7 242 -63 0
-64 0 0 -304 c0 -167 -5 -327 -10 -356 -29 -153 -125 -233 -280 -234 -129 -1
-222 61 -269 182 -12 29 -16 110 -19 374 -4 383 6 348 -95 348 l-49 0 5 -337z"/>
<path d="M14106 2244 c-3 -9 -6 -238 -6 -510 l0 -495 68 3 67 3 -4 248 c-4
272 6 520 20 511 5 -3 28 -33 51 -67 23 -34 84 -116 137 -182 261 -330 320
-405 360 -457 l43 -58 64 0 63 0 -2 508 -2 507 -62 1 c-41 1 -63 -2 -64 -10 0
-6 0 -178 0 -383 1 -204 -2 -374 -7 -377 -9 -6 -49 41 -154 180 -307 409 -394
523 -426 557 -33 33 -41 37 -88 37 -38 0 -53 -4 -58 -16z"/>
<path d="M10020 2187 l0 -64 163 1 162 1 3 -442 2 -443 64 0 63 0 6 257 c4
141 7 339 7 439 l0 184 168 2 167 3 0 60 0 60 -402 3 -403 2 0 -63z"/>
<path d="M11502 1748 l3 -503 63 -3 62 -3 0 506 0 505 -65 0 -65 0 2 -502z"/>
</g>
</svg>
