<?xml version="1.0" standalone="no"?>
<!DOCTYPE svg PUBLIC "-//W3C//DTD SVG 20010904//EN"
 "http://www.w3.org/TR/2001/REC-SVG-20010904/DTD/svg10.dtd">
<svg version="1.0" xmlns="http://www.w3.org/2000/svg"
 width="2082.000000pt" height="1285.000000pt" viewBox="0 0 2082.000000 1285.000000"
 preserveAspectRatio="xMidYMid meet">

<g transform="translate(0.000000,1285.000000) scale(0.100000,-0.100000)"
fill="#000000" stroke="none">
<path d="M7530 11443 c-304 -32 -586 -190 -761 -426 -157 -210 -239 -449 -239
-694 0 -138 12 -211 56 -349 114 -358 419 -646 783 -741 133 -34 329 -42 470
-19 295 50 540 204 716 451 97 135 159 283 191 452 24 130 15 363 -20 496 -43
167 -144 352 -265 489 -61 69 -211 178 -318 232 -183 92 -406 131 -613 109z"/>
<path d="M13220 11439 c-245 -23 -467 -127 -654 -308 -200 -195 -305 -412
-337 -695 -38 -349 106 -724 365 -950 146 -128 299 -210 473 -253 96 -25 126
-28 273 -27 146 0 178 3 275 27 435 108 776 489 836 933 15 115 6 314 -20 420
-79 321 -292 594 -577 737 -185 93 -421 136 -634 116z"/>
<path d="M7745 8621 c-420 -41 -814 -278 -1047 -631 -42 -63 -127 -205 -189
-315 -61 -110 -143 -251 -181 -313 -37 -62 -98 -166 -134 -230 -37 -64 -109
-189 -162 -277 -52 -88 -136 -232 -187 -320 -111 -194 -236 -409 -405 -695
-70 -118 -142 -242 -160 -275 -72 -128 -703 -1193 -860 -1450 -37 -60 -92
-153 -122 -205 -30 -52 -93 -160 -140 -240 -119 -204 -171 -300 -165 -306 3
-3 24 4 48 17 70 35 147 59 269 82 l115 21 2115 6 c1163 3 2116 7 2118 8 4 4
-34 74 -89 162 -28 47 -75 123 -102 170 -233 392 -310 523 -418 712 l-124 218
-827 2 -827 3 79 130 c44 72 106 175 137 230 31 55 124 217 208 360 83 143
218 375 300 515 81 140 222 381 313 535 91 154 217 368 280 475 204 346 201
343 314 338 59 -3 71 -7 99 -33 17 -17 49 -61 71 -100 23 -38 112 -191 198
-340 268 -459 439 -756 640 -1110 106 -187 257 -450 335 -585 232 -398 397
-685 490 -850 49 -85 134 -234 190 -330 123 -213 278 -483 440 -770 67 -118
167 -294 222 -390 105 -183 248 -435 416 -730 243 -426 279 -480 385 -582 179
-170 370 -271 637 -334 58 -14 145 -18 514 -21 244 -3 442 -1 440 4 -14 31
-166 312 -232 428 -44 77 -147 257 -227 400 -81 143 -223 391 -315 550 -197
341 -475 824 -565 980 -35 61 -104 180 -153 265 -50 85 -143 247 -207 360 -65
113 -149 259 -187 325 -193 329 -409 704 -473 820 -40 72 -110 193 -155 270
-45 77 -113 196 -150 265 -65 119 -317 561 -648 1135 -83 143 -195 339 -250
435 -55 96 -147 258 -204 360 -156 274 -204 343 -317 455 -199 198 -432 321
-709 374 -118 22 -327 33 -442 22z"/>
<path d="M12985 8623 c-345 -29 -656 -174 -902 -420 -100 -100 -165 -197 -348
-518 -187 -330 -445 -775 -590 -1020 -257 -435 -365 -623 -365 -635 0 -8 41
-84 92 -169 50 -86 130 -223 178 -306 47 -82 152 -262 231 -400 80 -137 161
-278 180 -312 19 -35 37 -63 41 -63 4 0 19 22 33 49 41 82 275 485 803 1386
58 99 144 248 192 330 336 583 395 685 423 728 54 81 138 106 224 68 48 -22
41 -13 223 -321 189 -322 329 -558 360 -610 16 -25 137 -234 270 -465 134
-231 273 -472 310 -535 37 -63 99 -171 138 -240 38 -69 93 -163 122 -210 65
-105 110 -186 110 -197 0 -4 -371 -7 -824 -5 -655 2 -825 0 -834 -10 -5 -7
-55 -92 -110 -188 -55 -96 -138 -238 -184 -315 -47 -77 -113 -189 -148 -250
-34 -60 -112 -191 -171 -291 -60 -99 -111 -188 -115 -197 -5 -15 160 -16 2128
-20 1871 -4 2143 -6 2218 -20 102 -18 241 -61 292 -90 21 -11 40 -18 43 -16 7
8 -149 277 -755 1299 -596 1005 -761 1284 -830 1405 -35 61 -100 173 -145 250
-79 133 -179 305 -385 660 -52 88 -157 268 -235 400 -78 132 -182 310 -230
395 -170 301 -290 452 -453 575 -266 200 -644 307 -987 278z"/>
<path d="M9444 3683 c-21 -38 -112 -198 -204 -358 -91 -159 -196 -342 -232
-405 -36 -63 -146 -254 -245 -425 -99 -170 -248 -429 -332 -573 -84 -145 -171
-294 -193 -330 -23 -37 -80 -137 -127 -222 -48 -85 -93 -165 -101 -177 -8 -12
-12 -23 -10 -25 3 -2 199 0 435 3 386 6 439 9 517 27 262 62 451 158 624 316
111 101 202 235 404 596 57 102 129 229 162 282 35 59 58 109 58 126 0 16 -16
54 -38 88 -21 32 -97 163 -169 289 -360 633 -491 855 -505 855 -4 0 -24 -30
-44 -67z"/>
<path d="M4437 2979 c-330 -29 -640 -171 -853 -391 -96 -100 -161 -189 -241
-333 -28 -50 -97 -169 -153 -265 -211 -357 -470 -813 -470 -825 0 -4 199 -5
443 -2 488 5 515 8 712 77 196 69 324 150 475 300 111 110 150 168 357 525 83
143 216 373 295 510 193 332 228 395 228 406 0 11 -666 10 -793 -2z"/>
<path d="M15760 2985 c0 -3 73 -133 161 -288 89 -155 191 -334 227 -397 143
-250 325 -557 369 -619 135 -191 357 -355 596 -440 197 -69 236 -74 721 -78
407 -4 438 -3 432 12 -3 9 -40 76 -82 148 -42 73 -191 332 -332 577 -287 501
-307 533 -370 610 -224 272 -555 439 -928 470 -130 10 -794 14 -794 5z"/>
</g>
</svg>
